<?xml version="1.0" encoding="UTF-8"?>
<svg version="1.1" xmlns="http://www.w3.org/2000/svg" width="1430" height="1140">
<path d="M0 0 C471.9 0 943.8 0 1430 0 C1430 376.2 1430 752.4 1430 1140 C958.1 1140 486.2 1140 0 1140 C0 763.8 0 387.6 0 0 Z " fill="#000000" transform="translate(0,0)"/>
<path d="M0 0 C1.13149908 -0.00583219 2.26299816 -0.01166439 3.42878509 -0.01767331 C4.66202207 -0.01389399 5.89525905 -0.01011467 7.16586685 -0.00622082 C8.48388676 -0.01004636 9.80190667 -0.01387191 11.15986657 -0.01781338 C14.81305755 -0.02809785 18.46615044 -0.02591028 22.11934948 -0.02163279 C26.0625292 -0.01916594 30.00568528 -0.02817998 33.94885635 -0.03567028 C41.67713009 -0.04842691 49.40536909 -0.05020923 57.13365158 -0.04787002 C63.42619579 -0.0460854 69.71872948 -0.04783964 76.01127243 -0.05209446 C77.35594447 -0.05298724 77.35594447 -0.05298724 78.72778161 -0.05389806 C80.54928539 -0.05510989 82.37078918 -0.05632402 84.19229296 -0.05754044 C101.28591254 -0.06842266 118.37951242 -0.06625206 135.47313312 -0.06015559 C151.05894039 -0.05500314 166.64468484 -0.06619629 182.23047969 -0.08525381 C198.26567706 -0.10470875 214.30084485 -0.11287377 230.33605409 -0.10913056 C239.32526223 -0.10722785 248.31441713 -0.10961316 257.30361557 -0.1238451 C264.96926241 -0.13585887 272.63482339 -0.13705456 280.30047163 -0.12505493 C284.20040326 -0.11923129 288.10017866 -0.11788114 292.00009918 -0.13005733 C314.73268476 -0.19618459 337.49889385 0.52644642 359.68057632 6.00447559 C361.2814711 6.38853565 361.2814711 6.38853565 362.91470718 6.7803545 C372.65746776 9.2027209 382.00596227 12.33220415 391.24307632 16.25447559 C391.97848648 16.56642872 392.71389664 16.87838184 393.47159195 17.19978809 C417.7304167 27.67857806 440.26598488 44.08341803 456.24307632 65.25447559 C456.84200699 66.04096485 456.84200699 66.04096485 457.45303726 66.84334278 C483.08558394 100.71992476 494.21212615 142.69298497 494.4575386 184.8677721 C494.46827095 186.10416068 494.4790033 187.34054925 494.49006087 188.61440414 C494.51839288 192.02101831 494.54244856 195.42760951 494.56436861 198.8342675 C494.5839229 201.76282087 494.60691307 204.69134389 494.62976246 207.61987311 C494.84554037 235.43999247 494.95922002 263.26089828 495.05057812 291.08167076 C495.06268357 294.70299386 495.07501754 298.32431609 495.08755875 301.9456377 C495.09066559 302.84556243 495.09377244 303.74548716 495.09697343 304.67268234 C495.14870691 319.2214427 495.25285075 333.76936057 495.37735098 348.31766022 C495.50445717 363.29638232 495.57758179 378.27466835 495.60098559 393.25391525 C495.61555529 401.6473598 495.65364785 410.03922211 495.75386238 418.43212032 C495.83928698 425.58645335 495.87579616 432.73902392 495.85160881 439.89385945 C495.84078315 443.53387192 495.85115661 447.1700652 495.92541122 450.80942059 C496.30272598 470.29576837 492.84863352 483.47039236 481.9278127 499.72452915 C479.55495684 503.28781558 477.43409477 506.97995742 475.30557632 510.69197559 C474.51073512 512.0369296 473.71406999 513.38080867 472.91495132 514.72322559 C469.58305725 520.35315415 466.3215996 526.02366729 463.05557632 531.69197559 C462.09856827 533.35281178 462.09856827 533.35281178 461.12222672 535.0472002 C459.81418156 537.31784627 458.50632185 539.58859917 457.19864273 541.85945606 C454.04975579 547.32617539 450.89624369 552.79022446 447.74307632 558.25447559 C446.49305283 560.4211287 445.24305286 562.58779539 443.99307632 564.75447559 C426.49307632 595.08780893 408.99307632 625.42114226 391.49307632 655.75447559 C390.87424576 656.82713673 390.25541519 657.89979786 389.61783218 659.00496387 C388.36872114 661.1700463 387.11953503 663.33508542 385.87027359 665.50008106 C382.73105323 670.94063265 379.5931707 676.38194775 376.45792007 681.82478809 C370.43560304 692.27653759 364.39638295 702.71747107 358.30557632 713.12947559 C353.23032509 721.80709801 348.22048866 730.52053127 343.24307632 739.25447559 C337.70305903 748.97563176 332.10932824 758.66342217 326.45962906 768.32137012 C320.30540891 778.84532184 314.21937636 789.40827697 308.13418961 799.97224903 C305.00627484 805.40107502 301.87449185 810.8276684 298.74307632 816.25447559 C297.49305753 818.42113142 296.24305754 820.58779809 294.99307632 822.75447559 C272.49307633 861.75447559 272.49307633 861.75447559 270.61661148 865.006917 C269.37138148 867.16538057 268.1262636 869.32390882 266.88125992 871.48250294 C263.68421295 877.02522301 260.48500038 882.56667567 257.28213882 888.10603809 C250.5326797 899.78371351 243.81006754 911.4730442 237.24307632 923.25447559 C236.58307632 922.92447559 235.92307632 922.59447559 235.24307632 922.25447559 C235.48458923 921.69929752 235.72610214 921.14411945 235.97493362 920.57211781 C246.97522367 895.2821197 257.95704513 869.98500901 268.80557632 844.62947559 C276.34256965 827.01426243 283.90499362 809.41024802 291.49307632 791.81697559 C291.97986862 790.6877367 292.46666092 789.55849781 292.9682045 788.39503956 C294.3352133 785.22420316 295.70304583 782.05372361 297.07120132 778.88338184 C297.68520042 777.45907101 297.68520042 777.45907101 298.31160355 776.00598621 C298.68505402 775.14125187 299.05850449 774.27651752 299.44327164 773.38557911 C299.76853836 772.63180485 300.09380508 771.87803059 300.42892838 771.10141468 C301.00078955 769.80411637 301.60904034 768.52254756 302.24307632 767.25447559 C301.2743681 767.25675392 301.2743681 767.25675392 300.28609002 767.25907826 C261.99867422 767.34861743 223.71127196 767.4172354 185.42377264 767.45873691 C180.8251289 767.46373966 176.22648537 767.46891695 171.62784195 767.47420216 C170.2545985 767.47577602 170.2545985 767.47577602 168.85361277 767.47738168 C154.03582351 767.49478035 139.21809642 767.52631508 124.40034403 767.56308678 C109.19259273 767.60051115 93.98487396 767.62271461 78.77707851 767.63082957 C69.39528929 767.63631424 60.01367578 767.65362847 50.63194065 767.68614146 C44.19592903 767.70730782 37.76000808 767.71367084 31.32396419 767.7084811 C27.61231648 767.70592261 23.90097553 767.7098063 20.18938255 767.73129749 C16.15956528 767.75446011 12.13039767 767.74640551 8.10052872 767.73549366 C6.35243965 767.75297071 6.35243965 767.75297071 4.56903565 767.77080083 C-2.95272304 767.71580768 -10.41625239 766.87795881 -16.405918 761.8779366 C-22.45683781 755.16658996 -22.04354488 747.54966835 -22.01139927 739.05976772 C-22.01460575 737.81428677 -22.01781223 736.56880582 -22.02111587 735.28558302 C-22.0297471 731.82041056 -22.02590479 728.35534624 -22.02006015 724.89017208 C-22.01589523 721.12334779 -22.02328873 717.35654343 -22.02921265 713.58972394 C-22.03798552 706.98513407 -22.03928291 700.3805752 -22.03570938 693.77598095 C-22.03040941 683.95474027 -22.03649056 674.13352968 -22.04479231 664.31229226 C-22.06004883 645.75248401 -22.06173569 627.19268938 -22.05926929 608.63287617 C-22.05743803 594.30289753 -22.05919271 579.97292337 -22.06349373 565.64294529 C-22.06409612 563.58560409 -22.06469732 561.52826289 -22.06529733 559.47092169 C-22.06620457 556.37086629 -22.06711323 553.2708109 -22.06802968 550.17075551 C-22.07646174 521.3404651 -22.08079316 492.51017638 -22.07662296 463.67988491 C-22.07646659 462.59258046 -22.07631021 461.50527602 -22.0761491 460.38502295 C-22.07534329 454.87388788 -22.07449752 449.36275282 -22.07363579 443.85161777 C-22.07346471 442.75705073 -22.07329362 441.66248369 -22.07311735 440.53474796 C-22.07277069 438.32126665 -22.07242216 436.10778534 -22.07207176 433.89430404 C-22.06671379 399.44761933 -22.07464611 365.00096021 -22.09310532 330.55428028 C-22.11381082 291.87031138 -22.12455082 253.18635834 -22.12052983 214.50238359 C-22.12013447 210.3794682 -22.11977293 206.25655282 -22.11943245 202.13363743 C-22.11934172 201.11844021 -22.11925099 200.10324299 -22.1191575 199.05728223 C-22.11799043 183.71682408 -22.12464815 168.37638192 -22.13524437 153.03592777 C-22.14727962 135.59414389 -22.14887468 118.15239527 -22.1364542 100.71061088 C-22.12981184 90.94526528 -22.13148831 81.18000393 -22.14504272 71.41466502 C-22.15326361 64.89535901 -22.15062051 58.37611637 -22.13906745 51.85681555 C-22.13278752 48.13990721 -22.13127045 44.42316374 -22.14293078 40.70626469 C-22.15537004 36.70433225 -22.14467117 32.70279618 -22.13165379 28.70086575 C-22.13896313 27.54440304 -22.14627248 26.38794034 -22.15380332 25.19643331 C-22.10620443 18.17567017 -21.69323016 11.93730068 -17.14364243 6.23103809 C-16.58290024 5.78502247 -16.02215805 5.33900684 -15.44442368 4.87947559 C-14.89141586 4.41799122 -14.33840805 3.95650684 -13.76864243 3.48103809 C-9.39382781 0.81367539 -5.06300508 0.00450593 0 0 Z " fill="#FEFEFE" transform="translate(316.7569236755371,19.745524406433105)"/>
<path d="M0 0 C0.33 0.66 0.66 1.32 1 2 C0.1015625 4.49121094 0.1015625 4.49121094 -1.375 7.734375 C-1.64606064 8.33756561 -1.91712128 8.94075623 -2.19639587 9.56222534 C-2.80008612 10.90496983 -3.4070822 12.24623135 -4.01681519 13.58624268 C-5.76163396 17.42617628 -7.47599067 21.27967415 -9.19140625 25.1328125 C-9.57067764 25.98382538 -9.94994904 26.83483826 -10.3407135 27.7116394 C-15.33768882 38.9596029 -20.12904383 50.29553273 -24.9375 61.625 C-26.91624046 66.28273322 -28.89562553 70.94019243 -30.875 75.59765625 C-31.62552895 77.36410744 -31.62552895 77.36410744 -32.39122009 79.16624451 C-37.54090752 91.2821661 -42.71922396 103.38575906 -47.90557861 115.48602295 C-49.42399652 119.0309743 -50.93954872 122.57713951 -52.45458984 126.12353516 C-56.93560306 136.60189992 -61.44977148 147.0610451 -66.1015625 157.46484375 C-67.23546331 160.01788573 -68.36831551 162.57139083 -69.50100708 165.12496948 C-70.52706196 167.4207094 -71.57320456 169.70648479 -72.62084961 171.99243164 C-73.22868931 173.35909899 -73.8356048 174.72617794 -74.44140625 176.09375 C-74.96420166 177.24552734 -75.48699707 178.39730469 -76.02563477 179.58398438 C-78.08585569 186.80688869 -75.6534733 192.60341118 -72.59765625 199.08984375 C-72.24821457 199.85544113 -71.89877289 200.62103851 -71.53874207 201.40983582 C-70.78359542 203.06145985 -70.02357338 204.71086189 -69.25915527 206.35821533 C-67.62453351 209.88149806 -66.01391733 213.41557276 -64.4022522 216.94940186 C-63.55782057 218.80086938 -62.71224375 220.65181499 -61.86557007 222.5022583 C-57.22197002 232.66375477 -52.72947966 242.89035072 -48.25 253.125 C-47.50535642 254.82286454 -46.76064778 256.52070056 -46.01586914 258.21850586 C-45.66073746 259.02966354 -45.30560577 259.84082123 -44.93971252 260.67655945 C-44.25056889 262.24901136 -43.55941713 263.82058501 -42.86607361 265.39118958 C-41.28499357 268.98669566 -39.75264521 272.58760977 -38.33007812 276.24902344 C-38.06918396 276.90506561 -37.80828979 277.56110779 -37.53948975 278.23703003 C-36.84841117 279.98670785 -36.17869435 281.74478157 -35.51074219 283.50341797 C-34.21997975 286.2509038 -34.21997975 286.2509038 -31.32519531 286.86767578 C-30.55788086 286.91134277 -29.79056641 286.95500977 -29 287 C-28.6143689 285.76817993 -28.6143689 285.76817993 -28.22094727 284.51147461 C-26.8300902 280.5113352 -25.18222624 276.68475024 -23.46484375 272.81640625 C-23.11462662 272.02149277 -22.76440948 271.22657928 -22.40357971 270.40757751 C-21.64683674 268.69064197 -20.88889624 266.97423383 -20.12988281 265.25830078 C-18.07997426 260.62376143 -16.03883482 255.98535802 -13.99609375 251.34765625 C-13.57689667 250.39666046 -13.15769958 249.44566467 -12.72579956 248.46585083 C-8.62336349 239.15569655 -4.55898579 229.82915813 -0.5 220.5 C5.30852005 207.15570948 11.14431102 193.82365661 17 180.5 C22.87401091 167.13361049 28.73122844 153.76009383 34.5625 140.375 C34.91168488 139.57350525 35.26086975 138.7720105 35.62063599 137.94622803 C38.08121886 132.29783139 40.54073718 126.64897148 43 121 C45.81175702 114.5413429 48.62407209 108.08292944 51.4375 101.625 C51.95567291 100.43546219 51.95567291 100.43546219 52.48431396 99.22189331 C58.9379671 84.40935722 65.42936791 69.61348991 71.93725586 54.82470703 C72.29434631 54.01261276 72.65143677 53.20051849 73.01934814 52.36381531 C73.7141645 50.78367395 74.40950458 49.20376277 75.10540771 47.62409973 C76.66909251 44.0669004 78.21614437 40.50476897 79.71606445 36.92016602 C80.11551018 35.96944969 80.11551018 35.96944969 80.52302551 34.99952698 C81.22276673 33.32726502 81.9154203 31.65204202 82.60742188 29.9765625 C87.49480392 19.53004042 95.1235822 11.08145162 105.95780945 6.83995056 C112.45696999 4.57338866 118.53295297 4.44302211 125.36254883 4.49829102 C126.65174225 4.49288803 127.94093567 4.48748505 129.26919556 4.48191833 C132.77107673 4.46808039 136.27246022 4.47904692 139.77431321 4.49562955 C143.45368636 4.50958145 147.13303358 4.50300908 150.81242371 4.49949646 C156.9830214 4.49680398 163.15342347 4.51019239 169.32397461 4.53344727 C176.44793725 4.56011011 183.5715743 4.56178187 190.69556981 4.5500589 C197.57003985 4.53926889 204.44439264 4.54547395 211.31885338 4.55961418 C214.23619054 4.56535747 217.15344143 4.56530457 220.0707798 4.56054878 C224.14217399 4.55487662 228.21308423 4.57412445 232.28442383 4.59594727 C233.4892189 4.59144562 234.69401398 4.58694397 235.93531799 4.58230591 C242.68667222 4.64247115 247.68398431 4.94120146 252.86328125 9.71875 C253.58064453 10.60046875 253.58064453 10.60046875 254.3125 11.5 C254.80363281 12.0878125 255.29476562 12.675625 255.80078125 13.28125 C258.9049046 17.73015643 258.87208588 22.83907386 258 28 C256.07849194 32.72862737 253.6950777 37.15030714 251.26220703 41.63232422 C249.43798493 45.05424027 247.72864111 48.53014566 246.01123047 52.0065918 C240.94828692 62.25463867 235.68170397 72.38530894 230.32861328 82.48388672 C227.86680928 87.14602418 225.43527946 91.82396952 223 96.5 C219.39142364 103.42542949 215.77000344 110.34367769 212.125 117.25 C208.04628866 124.98089077 204.01884424 132.73784021 200 140.5 C195.59118539 149.01536447 191.1632483 157.5196348 186.6875 166 C182.91883655 173.14321831 179.18591663 180.30489015 175.45385742 187.46728516 C172.38097239 193.36168645 169.29152306 199.24694969 166.1875 205.125 C161.91193601 213.2260686 157.70282116 221.36105465 153.5 229.5 C148.90976695 238.38918527 144.30067842 247.26741198 139.63012695 256.11474609 C132.70721594 269.23018888 125.87323604 282.39241472 119.03613281 295.55273438 C114.29135366 304.68524875 109.53161434 313.80920332 104.73120117 322.91259766 C101.03297512 329.92875417 97.35003885 336.95291872 93.70019531 343.99438477 C90.95151551 349.29255825 88.16078525 354.56319996 85.3125 359.80859375 C84.40528198 361.49927979 84.40528198 361.49927979 83.47973633 363.22412109 C82.30769631 365.40726716 81.12310857 367.58373507 79.92456055 369.75244141 C79.39644775 370.7429248 78.86833496 371.7334082 78.32421875 372.75390625 C77.85072998 373.62345947 77.37724121 374.4930127 76.8894043 375.38891602 C75.5640086 379.27996927 76.13458347 382.05410351 77.79545593 385.78858948 C78.86923841 387.90788071 80.00416979 389.98473138 81.15625 392.0625 C85.58245417 400.25836082 89.81890067 408.53606287 93.96875 416.875 C94.58603733 418.11323124 95.2033881 419.35143086 95.82080078 420.58959961 C98.03419388 425.0304873 100.24353453 429.47338821 102.45294189 433.91625977 C104.64333413 438.32035973 106.83566753 442.72348502 109.03125 447.125 C109.33698944 447.73799957 109.64272888 448.35099915 109.95773315 448.98257446 C113.94301391 456.96597335 118.01544287 464.89529967 122.20715332 472.7722168 C128.6873645 485.00288267 134.75473813 497.45009331 140.91650391 509.84338379 C149.77916254 527.72393833 149.77916254 527.72393833 158.96875 545.4375 C163.09273842 553.18839467 167.05033977 561.01869011 170.96875 568.875 C171.27424774 569.48743561 171.57974548 570.09987122 171.89450073 570.73086548 C174.4175199 575.79090357 176.93529274 580.85354837 179.45294189 585.91625977 C181.64333413 590.32035973 183.83566753 594.72348502 186.03125 599.125 C186.33698944 599.73799957 186.64272888 600.35099915 186.95773315 600.98257446 C190.94301391 608.96597335 195.01544287 616.89529967 199.20715332 624.7722168 C205.6873645 637.00288267 211.75473813 649.45009331 217.91650391 661.84338379 C227.4769399 681.07396498 227.4769399 681.07396498 237.3792572 700.13002014 C241.94356667 708.73853302 246.3145944 717.4431134 250.67163086 726.15795898 C252.08860207 728.98966291 253.51201082 731.81807603 254.93554688 734.64648438 C255.84413905 736.46074271 256.752357 738.27518853 257.66015625 740.08984375 C258.08297379 740.9282933 258.50579132 741.76674286 258.94142151 742.63059998 C259.32950485 743.40984329 259.7175882 744.18908661 260.11743164 744.99194336 C260.45811172 745.67187851 260.79879181 746.35181366 261.14979553 747.05235291 C263.10351275 751.52792531 263.67378154 756.15251617 263 761 C260.59690735 765.62817843 257.32244976 769.90618659 252.18755531 771.59669113 C249.58711212 772.07612212 247.14456199 772.13234162 244.49911499 772.14044189 C242.82129944 772.14900711 242.82129944 772.14900711 241.10958862 772.15774536 C239.88668121 772.15886322 238.6637738 772.15998108 237.40380859 772.16113281 C236.11230896 772.16609772 234.82080933 772.17106262 233.49017334 772.17617798 C229.9485299 772.18928168 226.40690541 772.19574346 222.86524153 772.20018864 C220.64932089 772.20312383 218.43340538 772.20722957 216.21748734 772.21169281 C209.27524508 772.22536502 202.33301461 772.23503192 195.39075983 772.2388947 C187.39457374 772.24336901 179.39855914 772.26088876 171.40242517 772.2898953 C165.21115314 772.31156942 159.01992914 772.3216021 152.8286196 772.32293582 C149.13611032 772.32398015 145.44376229 772.32980754 141.75129318 772.34775543 C137.62494399 772.36742179 133.49894962 772.36292442 129.37255859 772.35644531 C127.55641556 772.37026749 127.55641556 772.37026749 125.70358276 772.3843689 C116.98339103 772.34159859 108.2887491 771.52236846 101.25 765.875 C100.23679687 765.09769531 100.23679687 765.09769531 99.203125 764.3046875 C91.10749078 755.83585029 86.90943155 744.64024999 82.125 734.125 C81.28077605 732.28452538 80.43587665 730.44436045 79.59033203 728.60449219 C77.45357384 723.95022166 75.32572491 719.29194334 73.20092773 714.63220215 C71.40369653 710.69301772 69.60017463 706.75672152 67.796875 702.8203125 C65.18041375 697.10620634 62.56927702 691.38969242 59.9609375 685.671875 C55.82475992 676.60654715 51.66329329 667.5528991 47.5 658.5 C41.65333335 645.78528713 35.82435297 633.06264356 30.01025391 620.33300781 C24.85562648 609.04820987 19.6829577 597.77181243 14.5 586.5 C8.65817581 573.79529542 2.83235726 561.08342167 -2.97564697 548.36322021 C-6.87541342 539.82253866 -10.78502787 531.28651272 -14.7109375 522.7578125 C-15.10202698 521.90793762 -15.49311646 521.05806274 -15.89605713 520.18243408 C-17.79368091 516.05903046 -19.69262547 511.93624387 -21.59375 507.81445312 C-22.27869303 506.32684465 -22.96359122 504.83921552 -23.6484375 503.3515625 C-23.95913177 502.67924591 -24.26982605 502.00692932 -24.5899353 501.3142395 C-26.15565706 497.90980198 -27.64622332 494.49439946 -29 491 C-30.65 491 -32.3 491 -34 491 C-34.47606689 492.02730225 -34.95213379 493.05460449 -35.44262695 494.11303711 C-35.76243027 494.80313873 -36.08223358 495.49324036 -36.41172791 496.20425415 C-37.14436422 497.78520674 -37.87699968 499.36615971 -38.6096344 500.94711304 C-40.70539439 505.46955246 -42.80117037 509.99198448 -44.89697266 514.5144043 C-48.8657538 523.07846428 -52.83447164 531.64255353 -56.80258179 540.20692444 C-58.82665599 544.57547984 -60.85082414 548.94399171 -62.875 553.3125 C-63.27448853 554.17469147 -63.67397705 555.03688293 -64.08557129 555.92520142 C-68.90562536 566.32773982 -73.73071805 576.72790332 -78.5625 587.125 C-83.98486575 598.79502456 -89.37736115 610.47872156 -94.76721191 622.16378784 C-100.77019029 635.17731672 -106.78578506 648.18494667 -112.8125 661.1875 C-113.41615891 662.48991135 -113.41615891 662.48991135 -114.03201294 663.81863403 C-117.83595036 672.02506101 -121.64160433 680.23068584 -125.453125 688.43359375 C-126.23562622 690.11775391 -126.23562622 690.11775391 -127.03393555 691.8359375 C-128.04278394 694.00670982 -129.05205256 696.1772869 -130.06176758 698.34765625 C-132.85789389 704.36392802 -135.63929357 710.38661004 -138.40550232 716.41668701 C-140.03233603 719.96282305 -141.66160043 723.50784076 -143.29074097 727.05291748 C-144.08692365 728.78754086 -144.88181857 730.522756 -145.67532349 732.25860596 C-160.26788681 764.17971691 -160.26788681 764.17971691 -177 771 C-180.20854301 771.98378911 -183.12638299 772.13236188 -186.47637939 772.14717102 C-187.58939926 772.15432632 -188.70241913 772.16148163 -189.84916687 772.16885376 C-191.67421501 772.17288712 -191.67421501 772.17288712 -193.53613281 772.17700195 C-195.46357079 772.18685875 -195.46357079 772.18685875 -197.4299469 772.19691467 C-201.68766033 772.21791164 -205.94537393 772.22831295 -210.203125 772.23828125 C-211.67148609 772.24233043 -213.13984699 772.2464474 -214.6082077 772.25063133 C-221.50772767 772.2696734 -228.40723701 772.2839065 -235.30677819 772.2922433 C-243.25945496 772.30201249 -251.21185317 772.32832756 -259.16443181 772.36874419 C-265.31915367 772.39894572 -271.47379585 772.41371598 -277.62859035 772.41702431 C-281.30097375 772.41937019 -284.97305923 772.42826982 -288.64536285 772.45348549 C-292.74584878 772.48118741 -296.84571539 772.47692281 -300.94628906 772.4699707 C-302.1548909 772.48278076 -303.36349274 772.49559082 -304.60871887 772.50878906 C-311.54186133 772.46596908 -316.13601669 771.80225675 -322 768 C-325.73731778 763.7875114 -326.73637025 759.43472288 -326.42559814 753.85412598 C-325.03004346 744.49532369 -319.34058114 735.54076882 -314.953125 727.28125 C-313.70244286 724.89716222 -312.45374351 722.5121734 -311.20898438 720.125 C-310.87662151 719.48776253 -310.54425865 718.85052505 -310.20182419 718.19397736 C-305.78047694 709.68969472 -301.51192628 701.10847193 -297.234375 692.53125 C-296.80962387 691.68012634 -296.38487274 690.82900269 -295.94725037 689.9520874 C-292.8786501 683.80281074 -289.81386029 677.65163941 -286.75 671.5 C-283.66575445 665.30757163 -280.58003187 659.11588718 -277.49091339 652.92588806 C-276.28306674 650.50388774 -275.07769862 648.08066619 -273.87249756 645.65734863 C-270.00930324 637.90562464 -266.07555914 630.19922094 -262.02246094 622.54492188 C-257.43870793 613.8876023 -253.01816145 605.15622918 -248.65531921 596.38580322 C-247.36001555 593.78206231 -246.06195725 591.17970929 -244.76330566 588.57763672 C-242.0065663 583.05290505 -239.25301927 577.52658616 -236.5 572 C-233.30170662 565.57954223 -230.10198854 559.15980211 -226.89884949 552.74176025 C-225.64005487 550.21784253 -224.3837345 547.69270471 -223.12756348 545.16748047 C-219.17621044 537.23995772 -215.15948429 529.35510076 -211.01367188 521.52734375 C-206.36751434 512.75429964 -201.89199036 503.90330481 -197.47012329 495.01541138 C-196.14121002 492.34446296 -194.80955028 489.67489808 -193.47729492 487.00561523 C-190.649228 481.33822309 -187.82435143 475.66924448 -185 470 C-181.71909707 463.414332 -178.43677417 456.82937913 -175.15103149 450.24612427 C-173.85900018 447.65572829 -172.56944118 445.06411267 -171.2800293 442.47241211 C-166.02903676 431.93802666 -160.62288914 421.4948706 -155.10844231 411.0961113 C-152.12950939 405.46282311 -149.20787617 399.80158636 -146.3125 394.125 C-145.99708252 393.52155762 -145.68166504 392.91811523 -145.35668945 392.29638672 C-144.42895795 390.51955708 -143.52078845 388.73255619 -142.61328125 386.9453125 C-141.82111206 385.40641357 -141.82111206 385.40641357 -141.01293945 383.83642578 C-139.64729001 380.01234401 -140.34996886 377.53476164 -141.91267395 373.84512329 C-142.28285141 373.12617889 -142.65302887 372.4072345 -143.03442383 371.66650391 C-143.45645584 370.83945953 -143.87848785 370.01241516 -144.31330872 369.16030884 C-145.00320137 367.8318544 -145.00320137 367.8318544 -145.70703125 366.4765625 C-146.18440231 365.54588959 -146.66177338 364.61521667 -147.15361023 363.65634155 C-148.17399276 361.66935861 -149.19725922 359.68385447 -150.22314453 357.69970703 C-151.81401817 354.622063 -153.39622819 351.54009852 -154.9765625 348.45703125 C-159.33428712 339.96766766 -163.70505668 331.48735014 -168.23046875 323.0859375 C-169.08451294 321.49144775 -169.08451294 321.49144775 -169.95581055 319.86474609 C-170.95330833 318.01421029 -171.96307829 316.17021357 -172.98754883 314.33447266 C-173.41447021 313.54347168 -173.8413916 312.7524707 -174.28125 311.9375 C-174.64283203 311.28652344 -175.00441406 310.63554687 -175.37695312 309.96484375 C-176.49654515 306.43409274 -175.36289213 303.7654697 -173.82348633 300.51831055 C-173.33130615 299.64988525 -172.83912598 298.78145996 -172.33203125 297.88671875 C-171.77588135 296.89873291 -171.21973145 295.91074707 -170.64672852 294.89282227 C-170.04143311 293.83506592 -169.4361377 292.77730957 -168.8125 291.6875 C-168.184646 290.57882568 -167.55679199 289.47015137 -166.90991211 288.32788086 C-161.53806301 278.87034342 -156.06304021 269.47298349 -150.5625 260.08984375 C-146.8678669 253.78429581 -143.21147319 247.45705564 -139.5625 241.125 C-138.62869507 239.50476929 -138.62869507 239.50476929 -137.67602539 237.85180664 C-136.41423174 235.66203666 -135.15259466 233.47217645 -133.89111328 231.28222656 C-130.76319852 225.85340058 -127.63141552 220.42680719 -124.5 215 C-123.24998121 212.83334417 -121.99998122 210.6666775 -120.75 208.5 C-113.25 195.5 -105.75 182.5 -98.25 169.5 C-97.63116943 168.42733887 -97.01233887 167.35467773 -96.37475586 166.24951172 C-95.12564482 164.08442929 -93.87645871 161.91939018 -92.62719727 159.75439453 C-89.48797691 154.31384294 -86.35009437 148.87252784 -83.21484375 143.4296875 C-77.19252671 132.97793801 -71.15330663 122.53700452 -65.0625 112.125 C-59.98724877 103.44737759 -54.97741233 94.73394432 -50 86 C-44.46160488 76.28169029 -38.87082847 66.59595124 -33.22094727 56.94189453 C-28.92849736 49.60411309 -24.67707045 42.24344081 -20.4375 34.875 C-13.7150608 23.19632005 -6.88602166 11.5828762 0 0 Z " fill="#FEFEFE" transform="translate(988,190)"/>
<path d="M0 0 C81.18 0 162.36 0 246 0 C246 44.55 246 89.1 246 135 C202.77 135 159.54 135 115 135 C115 409.23 115 683.46 115 966 C158.23 966 201.46 966 246 966 C246 1010.88 246 1055.76 246 1102 C164.82 1102 83.64 1102 0 1102 C0 738.34 0 374.68 0 0 Z " fill="#FEFEFE" transform="translate(20,20)"/>
<path d="M0 0 C81.18 0 162.36 0 246 0 C246 363 246 726 246 1100 C164.82 1100 83.64 1100 0 1100 C0 1055.12 0 1010.24 0 964 C43.23 964 86.46 964 131 964 C131 690.76 131 417.52 131 136 C87.77 136 44.54 136 0 136 C0 91.12 0 46.24 0 0 Z " fill="#FEFEFE" transform="translate(1164,17)"/>
<path d="M0 0 C1.33964825 -0.00243129 2.67929469 -0.00615388 4.01893616 -0.01106262 C7.64581233 -0.02044009 11.27241704 -0.01106692 14.89927197 0.00226951 C18.71672252 0.01364563 22.53416088 0.00947103 26.35162354 0.00752258 C32.77401105 0.00664026 39.19629292 0.0176963 45.61865234 0.03613281 C52.99556385 0.05719127 60.3723195 0.06083303 67.74925494 0.05457085 C74.88741492 0.04882589 82.02552116 0.05458954 89.1636734 0.0657444 C92.1791002 0.07033418 95.1944935 0.07128892 98.20992279 0.06915855 C152.03417352 0.04700791 152.03417352 0.04700791 170.74707031 13.37231445 C171.79894531 14.09418945 172.85082031 14.81606445 173.93457031 15.55981445 C188.02235261 29.64759675 190.98459123 50.15564146 191.01921922 69.22631472 C191.01558773 70.71632189 191.01176345 72.2063286 191.00776672 73.69633484 C191.01079329 75.31164962 191.01468529 76.92696297 191.01935929 78.54227382 C191.02958315 82.94759322 191.02747188 87.35283072 191.0231787 91.75815666 C191.02070117 96.52247027 191.0297384 101.28676469 191.03721619 106.05107117 C191.04993737 115.37257785 191.05176005 124.69405569 191.04941592 134.01556959 C191.0476295 141.59710694 191.04938936 149.17863558 191.05364037 156.76017189 C191.05423555 157.84115512 191.05483074 158.92213834 191.05544397 160.03587863 C191.05665578 162.23225953 191.05786992 164.42864042 191.05908635 166.62502132 C191.06995221 187.20356245 191.06780407 207.78208718 191.0617015 228.36062924 C191.05653477 247.15878876 191.06778305 265.95689641 191.08679972 284.75504567 C191.10620404 304.08554118 191.11442947 323.41601218 191.11067647 342.74651748 C191.10876816 353.58760238 191.11121571 364.42864316 191.12539101 375.26972008 C191.13733897 384.50034325 191.13867163 393.73089517 191.12660084 402.96151938 C191.1207357 407.66452981 191.1195467 412.36741012 191.13160324 417.07041168 C191.14254228 421.38795432 191.13926467 425.70525946 191.12534156 430.02279136 C191.12271647 431.57251081 191.12499104 433.12224937 191.13307742 434.67194995 C191.23511301 455.71136593 188.19671398 475.85790475 173.62207031 492.05981445 C162.7655358 502.30003914 144.79046208 506.45358152 130.25744629 506.5262146 C128.97050369 506.53481506 127.6835611 506.54341553 126.35762024 506.55227661 C124.94381754 506.55671085 123.53001442 506.5610093 122.11621094 506.56518555 C120.61768915 506.57309461 119.11916922 506.58136405 117.62065125 506.58996582 C112.7148925 506.61607617 107.80912565 506.63147478 102.90332031 506.64575195 C101.21141048 506.65111471 99.51950069 506.65649223 97.82759094 506.66188431 C90.79139697 506.68349005 83.75520521 506.70222825 76.71898651 506.7135067 C66.6462902 506.72976201 56.57397851 506.76300425 46.50142717 506.81990755 C39.41082519 506.85859767 32.32032618 506.87813782 25.22962141 506.88342726 C20.99725079 506.88707979 16.76529145 506.89909178 12.53303528 506.93153 C8.55362544 506.96159745 4.57487616 506.96792761 0.59537697 506.95614624 C-0.86310985 506.95592544 -2.32162725 506.96423579 -3.78000832 506.98180008 C-16.16963427 507.12287549 -16.16963427 507.12287549 -20.1048584 503.96084595 C-23.57721286 499.77648814 -23.39624346 496.71858079 -23.38435745 491.47205639 C-23.38641009 490.6422552 -23.38846272 489.81245402 -23.39057755 488.95750734 C-23.39628083 486.14672109 -23.39478623 483.33598332 -23.39337158 480.52519226 C-23.39595331 478.50175206 -23.39896593 476.47831236 -23.40237498 474.45487338 C-23.41047079 468.87086986 -23.41223598 463.28687918 -23.41297245 457.70287049 C-23.41481853 451.68979871 -23.42236357 445.67673367 -23.42910767 439.66366577 C-23.44341933 425.81823028 -23.44921983 411.97279657 -23.45379961 398.12735549 C-23.45613393 391.28864288 -23.45973639 384.44993111 -23.46349499 377.61121916 C-23.47633161 354.21140086 -23.4870509 330.81158303 -23.49049759 307.41176128 C-23.49071922 305.94229757 -23.49094101 304.47283386 -23.49116294 303.00337015 C-23.49138358 301.53031362 -23.49160407 300.05725709 -23.49182439 298.58420056 C-23.49226695 295.62888761 -23.49271406 292.67357467 -23.49316406 289.71826172 C-23.49327345 288.98551352 -23.49338284 288.25276533 -23.49349555 287.49781264 C-23.49712719 263.73172515 -23.51305072 239.96566815 -23.53635443 216.19959234 C-23.56093523 191.08525896 -23.57466961 165.97094301 -23.57586551 140.85659724 C-23.57603697 138.10112782 -23.5762524 135.3456584 -23.57649994 132.59018898 C-23.57655571 131.91169221 -23.57661148 131.23319544 -23.57666893 130.53413816 C-23.57782089 119.60224367 -23.58885511 108.6703804 -23.60338699 97.73849646 C-23.61773385 86.75613105 -23.62074617 75.77380049 -23.61294702 64.79142746 C-23.60902812 58.83849646 -23.61003032 52.88567078 -23.62400436 46.93275261 C-23.63666918 41.48794788 -23.63561148 36.04332839 -23.62341365 30.59852419 C-23.62144372 28.62407833 -23.6245943 26.64961968 -23.63325801 24.67519184 C-23.64425787 21.99993194 -23.63692881 19.32533655 -23.62486649 16.65009594 C-23.63246168 15.87606909 -23.64005687 15.10204224 -23.64788222 14.30456004 C-23.60395892 9.81983195 -23.05659754 6.91949107 -20.25292969 3.37231445 C-13.92787344 -0.58579084 -7.27150857 -0.04465325 0 0 Z " fill="#000000" transform="translate(469.2529296875,149.627685546875)"/>
<path d="M0 0 C0.33 0.66 0.66 1.32 1 2 C1.66 2 2.32 2 3 2 C1.56347895 6.91441412 -0.54159615 11.00238358 -3.125 15.375 C-3.49753906 16.01566406 -3.87007812 16.65632812 -4.25390625 17.31640625 C-5.16434002 18.88048477 -6.08148191 20.44065534 -7 22 C-7.66 21.67 -8.32 21.34 -9 21 C-6.03 14.07 -3.06 7.14 0 0 Z " fill="#D4D4D4" transform="translate(561,921)"/>
<path d="M0 0 C0.66 0.33 1.32 0.66 2 1 C-2.29 5.29 -6.58 9.58 -11 14 C-11 10.30159372 -10.17133056 9.68584567 -7.75 7 C-7.14671875 6.319375 -6.5434375 5.63875 -5.921875 4.9375 C-4.06233388 3.06284066 -2.15205789 1.52358081 0 0 Z " fill="#DDDDDD" transform="translate(1087,200)"/>
<path d="M0 0 C0.33 0.66 0.66 1.32 1 2 C0.10333658 4.24310013 -0.89146683 6.44754321 -1.9375 8.625 C-2.50339844 9.81351563 -3.06929687 11.00203125 -3.65234375 12.2265625 C-4.09707031 13.14179688 -4.54179688 14.05703125 -5 15 C-5.99 15 -6.98 15 -8 15 C-6.62712658 11.30123909 -4.93644547 8.0485524 -2.875 4.6875 C-2.33617187 3.80449219 -1.79734375 2.92148438 -1.2421875 2.01171875 C-0.83226562 1.34785156 -0.42234375 0.68398437 0 0 Z " fill="#CDCDCD" transform="translate(988,190)"/>
<path d="M0 0 C0.6875 1.75 0.6875 1.75 1 4 C-0.25 6.25 -0.25 6.25 -2 8 C-2.99 8 -3.98 8 -5 8 C-3.8141763 4.62496331 -2.72426311 2.35277269 0 0 Z " fill="#E6E6E6" transform="translate(981,204)"/>
</svg>
